<svg width="768" height="545" viewBox="0 0 768 545" fill="none" xmlns="http://www.w3.org/2000/svg">
<g clip-path="url(#clip0_2010_181)">
<path d="M267.696 538.628H729.603C750.847 538.628 768 521.047 768 500.039C768 478.316 750.967 461.2 729.603 461.2H267.696C246.084 461.2 229.547 478.665 229.547 500.039C229.547 520.699 246.317 538.628 267.696 538.628Z" fill="black" style="fill:black;fill-opacity:1;"/>
<path d="M44.8544 545H107.451C132.125 545 152.556 524.691 152.556 500.156C152.556 475.121 132.125 455.062 107.451 455.062H44.8544C20.181 455.062 0 475.121 0 500.156C0 524.691 20.181 545 44.8544 545Z" fill="black" style="fill:black;fill-opacity:1;"/>
<path d="M267.696 311.405H729.603C750.847 311.405 768 293.575 768 272.567C768 251.093 750.967 233.978 729.603 233.978H267.696C246.084 233.978 229.547 251.442 229.547 272.567C229.547 293.342 246.317 311.405 267.696 311.405Z" fill="black" style="fill:black;fill-opacity:1;"/>
<path d="M44.8544 317.777H107.451C132.125 317.777 152.556 297.468 152.556 272.683C152.556 247.899 132.125 227.838 107.451 227.838H44.8544C20.181 227.838 0 247.899 0 272.683C0 297.468 20.181 317.777 44.8544 317.777Z" fill="black" style="fill:black;fill-opacity:1;"/>
<path d="M267.696 83.9331H729.603C750.847 83.9331 768 66.352 768 45.3439C768 23.7369 750.967 6.50504 729.603 6.50504H267.696C246.084 6.50504 229.547 23.9697 229.547 45.3439C229.547 66.1192 246.317 83.9331 267.696 83.9331Z" fill="black" style="fill:black;fill-opacity:1;"/>
<path d="M44.8544 90.3049H107.451C132.125 90.3049 152.556 69.995 152.556 45.4602C152.556 20.4262 132.125 0.365997 107.451 0.365997H44.8544C20.181 0.365997 0 20.4262 0 45.4602C0 69.995 20.181 90.3049 44.8544 90.3049Z" fill="black" style="fill:black;fill-opacity:1;"/>
</g>
<defs>
<clipPath id="clip0_2010_181">
<rect width="768" height="545" fill="white" style="fill:white;fill-opacity:1;"/>
</clipPath>
</defs>
</svg>
