<svg width="768" height="714" viewBox="0 0 768 714" fill="none" xmlns="http://www.w3.org/2000/svg">
<g clip-path="url(#clip0_2011_15)">
<path d="M469.347 714C669.091 714 768 533.685 768 435.451C768 396.303 719.197 395.038 714.769 431.382C700.932 546.948 610.325 627.507 509.192 627.507C402.96 627.507 319.895 550.843 319.895 451.453C319.895 353.639 386.196 253.12 478.297 253.12C509.851 253.12 512.182 271.219 546.58 271.219C596.175 271.219 703.414 196.442 703.414 140.261C703.414 102.118 646.409 79.9627 557.586 79.9627C493.347 79.9627 469.573 96.9075 464.263 130.002C461.16 148.859 451.604 157.718 434.23 157.718C279.135 157.718 155.508 276.581 155.508 428.814C155.508 596.319 284.868 714 469.347 714ZM263.698 129.357C255.148 146.265 259.603 166.163 276.33 175.888L319.736 201.356L401.719 171.187L319.313 132.273L328.967 92.1298L383.38 82.4912C406.546 78.3105 399.908 40.0791 371.12 49.1594C358.81 53.0795 349.963 40.5998 356.8 29.4847C369.879 7.14363 331.908 -8.47393 324.464 13.9539C320.269 26.1607 306.595 27.9843 300.489 14.6858C289.135 -9.01977 254.528 6.87076 268.153 29.4847L293.082 71.054L263.698 129.357ZM400.38 378.188L465.525 381.836L489.189 424.497C501.722 447.47 535.684 423.504 518.609 405.418C509.415 395.481 518.163 380.917 530.56 383.56C553.813 388.459 559.532 347.326 533.463 347.598C520.161 347.598 513.783 333.928 523.263 325.269C545.971 304.751 516.178 280.14 500.643 298.115L465.153 340.143L425.917 328.768L433.101 238.112L366.02 293.537L366.293 344.025C366.293 363.476 381.469 377.283 400.38 378.188ZM102.98 481.932L67.4912 536.601L18.5384 535.51C-8.09043 534.963 -4.45471 573.196 19.4442 570.737C33.2058 569.647 41.6812 582.497 33.2058 591.976C16.6651 609.688 50.0937 636.114 62.9116 612.494C69.5631 600.561 84.6027 602.109 87.6055 614.775C94.2442 645.303 130.763 631.688 122.672 608.699L103.836 557.119L133.158 528.81L207.535 579.809L192.72 493.94L149.885 469.577C132.699 459.852 113.342 465.756 102.98 481.932ZM400.255 453.947C384.161 443.763 364.171 446.479 352.532 462.109L322.949 502.673L345.11 587.002L392.239 509.086L430.843 522.844L434.739 577.612C436.823 601.489 475.885 598.314 469.26 568.803C466.53 556.225 479.932 548.485 490.591 556.685C511.574 572.213 530.832 534.902 508.943 525.636C497.006 520.438 498.557 501.507 512.319 500.763C536.577 500.205 522.866 456.813 499.339 468.25L455.201 489.251L400.255 453.947Z" fill="black" style="fill:black;fill-opacity:1;"/>
</g>
<defs>
<clipPath id="clip0_2011_15">
<rect width="768" height="714" fill="white" style="fill:white;fill-opacity:1;"/>
</clipPath>
</defs>
</svg>
