<svg width="1024" height="1024" viewBox="0 0 1024 1024" fill="none" xmlns="http://www.w3.org/2000/svg">
<path d="M58.7977 611.5V414.215H134.13C153.908 414.215 170.77 417.997 184.716 425.562C198.752 433.128 209.507 444.202 216.981 458.785C224.455 473.277 228.192 490.96 228.192 511.832V512.105C228.192 532.978 224.455 550.842 216.981 565.699C209.598 580.556 198.889 591.904 184.852 599.742C170.816 607.581 153.908 611.5 134.13 611.5H58.7977ZM100.087 577.32H129.208C141.513 577.32 151.903 574.859 160.38 569.938C168.856 565.016 175.236 557.724 179.52 548.062C183.895 538.401 186.083 526.461 186.083 512.242V511.969C186.083 498.206 183.85 486.585 179.384 477.105C175.009 467.626 168.583 460.471 160.106 455.641C151.63 450.719 141.33 448.258 129.208 448.258H100.087V577.32ZM255.252 611.5V414.215H385.955V448.258H296.541V495.562H380.897V527.828H296.541V577.457H385.955V611.5H255.252ZM436.805 611.5V580.738H492.996C504.845 580.738 513.914 578.368 520.203 573.629C526.492 568.798 529.637 561.826 529.637 552.711V552.438C529.637 546.422 528.178 541.363 525.262 537.262C522.345 533.069 518.016 529.924 512.273 527.828C506.622 525.732 499.604 524.684 491.219 524.684H436.805V496.656H486.297C497.964 496.656 506.805 494.332 512.82 489.684C518.927 484.944 521.98 478.336 521.98 469.859V469.586C521.98 461.747 519.292 455.686 513.914 451.402C508.536 447.027 501.017 444.84 491.355 444.84H436.805V414.215H502.02C514.507 414.215 525.262 416.22 534.285 420.23C543.309 424.241 550.281 429.983 555.203 437.457C560.125 444.84 562.586 453.59 562.586 463.707V463.98C562.586 471.181 560.9 477.88 557.527 484.078C554.246 490.185 549.734 495.289 543.992 499.391C538.25 503.401 531.733 505.908 524.441 506.91V507.73C533.647 508.368 541.805 510.829 548.914 515.113C556.023 519.306 561.583 524.866 565.594 531.793C569.695 538.629 571.746 546.376 571.746 555.035V555.309C571.746 566.793 568.966 576.728 563.406 585.113C557.938 593.499 550.099 600.016 539.891 604.664C529.773 609.221 517.651 611.5 503.523 611.5H436.805ZM416.16 611.5V414.215H457.449V611.5H416.16ZM678.377 614.918C661.515 614.918 646.886 611.865 634.49 605.758C622.185 599.651 612.615 591.129 605.779 580.191C599.034 569.163 595.662 556.357 595.662 541.773V414.215H636.951V538.082C636.951 546.559 638.546 553.941 641.736 560.23C645.017 566.428 649.711 571.259 655.818 574.723C662.016 578.186 669.535 579.918 678.377 579.918C687.218 579.918 694.692 578.186 700.798 574.723C706.996 571.259 711.69 566.428 714.88 560.23C718.071 553.941 719.666 546.559 719.666 538.082V414.215H760.955V541.773C760.955 556.357 757.582 569.163 750.838 580.191C744.184 591.129 734.659 599.651 722.263 605.758C709.959 611.865 695.33 614.918 678.377 614.918ZM883.171 614.918C868.405 614.918 855.144 612.594 843.386 607.945C831.719 603.297 821.784 596.552 813.581 587.711C805.378 578.779 799.089 567.978 794.714 555.309C790.339 542.639 788.152 528.284 788.152 512.242V512.105C788.152 490.96 791.98 472.867 799.636 457.828C807.292 442.698 818.139 431.077 832.175 422.965C846.303 414.853 862.982 410.797 882.214 410.797C898.073 410.797 912.064 413.622 924.187 419.273C936.309 424.833 946.153 432.49 953.718 442.242C961.374 451.995 966.296 463.069 968.484 475.465L968.894 477.379H927.468L926.921 476.012C923.64 466.441 918.171 459.013 910.515 453.727C902.859 448.44 893.471 445.797 882.351 445.797C871.504 445.797 862.162 448.395 854.323 453.59C846.576 458.694 840.606 466.168 836.413 476.012C832.312 485.855 830.261 497.75 830.261 511.695V511.832C830.261 522.496 831.491 532.066 833.952 540.543C836.413 548.928 839.968 556.038 844.616 561.871C849.356 567.704 855.007 572.171 861.57 575.27C868.223 578.368 875.652 579.918 883.855 579.918C892.787 579.918 900.671 578.277 907.507 574.996C914.434 571.624 919.857 566.93 923.777 560.914C927.787 554.807 929.974 547.698 930.339 539.586L930.476 536.715H885.359V505.953H970.671V528.648C970.671 542.047 968.666 554.078 964.655 564.742C960.736 575.406 954.994 584.475 947.429 591.949C939.955 599.423 930.795 605.12 919.948 609.039C909.102 612.958 896.843 614.918 883.171 614.918Z" fill="#1E1E1E" style="fill:#1E1E1E;fill:color(display-p3 0.1176 0.1176 0.1176);fill-opacity:1;"/>
</svg>
